# xmcd
#
# Track frame offsets: 
#        150
#        21935
#        37277
#        60437
#        84285
#        111637
#        138135
#        152957
#        178120
#        204277
#        234497
#
# Disc length: 3436 seconds
#
# Revision: 0
# Processed by: cddbd v1.5.2PL0 Copyright (c) Steve Scherf et al.
# Submitted via: ExactAudioCopy v1.0b1
#
DISCID=920d6a0b
DTITLE=Eric Clapton - Journeyman Outtakes
DYEAR=1999
DGENRE=Blues
TTITLE0=Pretending
TTITLE1=Forever
TTITLE2=Don't Turn Your Back
TTITLE3=Breaking Point
TTITLE4=No Alibis
TTITLE5=Lead Me On
TTITLE6=Hard Times
TTITLE7=Running On Faith
TTITLE8=Something About You
TTITLE9=Murdoch's Men
TTITLE10=Higher Power
EXTD=
EXTT0=
EXTT1=
EXTT2=
EXTT3=
EXTT4=
EXTT5=
EXTT6=
EXTT7=
EXTT8=
EXTT9=
EXTT10=
PLAYORDER=
